# xmcd CD database file
#
# Track frame offsets:
#	150
#	23058
#	50138
#
# Disc length: 914 seconds
#
# Revision: 0
# Processed by: cddbd v1.5PL3 Copyright (c) Steve Scherf et al.
# Submitted via: CDex 1.50
#
DISCID=20039003
DTITLE=KOKIA - 人間ってそんなものね
DYEAR=2002
DGENRE=Pop
TTITLE0=人間ってそんなものね
TTITLE1=もう愛せない
TTITLE2=MOONLIGHT SHADOW
EXTD=YEAR: 2002
EXTT0=
EXTT1=
EXTT2=
PLAYORDER=
